# xmcd
#
# Track frame offsets:
#  150
#  19760
#  35890
#  56612
#  80865
#  106060
#  127955
#  147147
#
# Disc length: 2216 seconds
#
# Revision: 0
# Processed by: cddbd v1.5.1PL2 Copyright (c) Steve Scherf et al.
# Submitted via: Collectorz.com_Music_Collector 6.9
#
DISCID=6908a608
DTITLE=Shirley Brown - For The Real Feeling - Shirley Brown
DYEAR=1900
DGENRE=
TTITLE0=When, Where And What Time
TTITLE1=Crowding In On My Mind
TTITLE2=After A Night Like This
TTITLE3=Dirty Feelin'
TTITLE4=Hang On Louie
TTITLE5=Eyes Can't See
TTITLE6=Move Me - Move Me
TTITLE7=Love Starved
EXTD=
EXTT0=
EXTT1=
EXTT2=
EXTT3=
EXTT4=
EXTT5=
EXTT6=
EXTT7=
PLAYORDER=
